<?xml version="1.0" encoding="utf-8"?>
<!-- Generator: Adobe Illustrator 20.0.0, SVG Export Plug-In . SVG Version: 6.00 Build 0)  -->
<svg version="1.1" id="Layer_1" xmlns="http://www.w3.org/2000/svg" xmlns:xlink="http://www.w3.org/1999/xlink" x="0px" y="0px"
	 viewBox="0 0 32 32" style="enable-background:new 0 0 32 32;" xml:space="preserve">
<style type="text/css">
	.st0{fill:#FFFFFF;}
	.st1{fill:#909090;}
	.st2{fill:#333333;}
</style>
<g id="Style_2">
	<g>
		<g>
			<path class="st0" d="M16,31.6c-8.6,0-15.6-7-15.6-15.6c0-8.6,7-15.6,15.6-15.6c8.6,0,15.6,7,15.6,15.6
				C31.6,24.6,24.6,31.6,16,31.6z"/>
			<path class="st1" d="M16,0.8c8.4,0,15.2,6.8,15.2,15.2S24.4,31.2,16,31.2S0.8,24.4,0.8,16S7.6,0.8,16,0.8 M16,0C7.2,0,0,7.2,0,16
				c0,8.8,7.2,16,16,16s16-7.2,16-16C32,7.2,24.8,0,16,0L16,0z"/>
		</g>
	</g>
	<g>
		<polygon class="st2" points="6.5,21.8 11.7,15.3 6.5,12.1 		"/>
		<polygon class="st2" points="19.5,15.7 16,17.9 12.5,15.8 7.1,22.5 24.9,22.5 		"/>
		<polygon class="st2" points="16,16.9 25.5,11 25.5,9.5 6.5,9.5 6.5,11.1 		"/>
		<polygon class="st2" points="20.3,15.3 25.5,21.8 25.5,12.1 		"/>
	</g>
</g>
</svg>
