<?xml version="1.0" encoding="utf-8"?>
<!-- Generator: Adobe Illustrator 20.0.0, SVG Export Plug-In . SVG Version: 6.00 Build 0)  -->
<svg version="1.1" id="Layer_1" xmlns="http://www.w3.org/2000/svg" xmlns:xlink="http://www.w3.org/1999/xlink" x="0px" y="0px"
	 viewBox="0 0 32 32" style="enable-background:new 0 0 32 32;" xml:space="preserve">
<style type="text/css">
	.st0{fill:#909090;}
	.st1{fill:#FFFFFF;}
</style>
<g id="Flat_copy">
	<g>
		<path class="st0" d="M16,0C7.2,0,0,7.2,0,16c0,8.8,7.2,16,16,16s16-7.2,16-16C32,7.2,24.8,0,16,0z"/>
	</g>
	<path class="st1" d="M24.3,22.9v-6.1c0-3.3-1.8-4.8-4.1-4.8c-1.9,0-2.7,1-3.2,1.8v-1.5h-3.6c0,1,0,10.7,0,10.7H17v-6
		c0-0.3,0-0.6,0.1-0.9c0.3-0.6,0.8-1.3,1.8-1.3c1.3,0,1.8,1,1.8,2.4v5.7L24.3,22.9L24.3,22.9z M9.7,10.8c1.2,0,2-0.8,2-1.9
		c0-1.1-0.8-1.8-2-1.8s-2,0.8-2,1.8C7.7,10,8.5,10.8,9.7,10.8L9.7,10.8z M11.5,22.9V12.2H7.9v10.7C7.9,22.9,11.5,22.9,11.5,22.9z"/>
</g>
</svg>
